<svg width="33" height="33" viewBox="0 0 33 33" fill="none" xmlns="http://www.w3.org/2000/svg">
<path d="M10.6666 25.8333C11.197 25.8333 11.7057 26.044 12.0808 26.4191C12.4559 26.7942 12.6666 27.3029 12.6666 27.8333C12.6666 28.3638 12.4559 28.8725 12.0808 29.2475C11.7057 29.6226 11.197 29.8333 10.6666 29.8333C10.1362 29.8333 9.62744 29.6226 9.25237 29.2475C8.8773 28.8725 8.66658 28.3638 8.66658 27.8333C8.66658 27.3029 8.8773 26.7942 9.25237 26.4191C9.62744 26.044 10.1362 25.8333 10.6666 25.8333ZM23.9999 25.8333C24.5303 25.8333 25.0391 26.044 25.4141 26.4191C25.7892 26.7942 25.9999 27.3029 25.9999 27.8333C25.9999 28.3638 25.7892 28.8725 25.4141 29.2475C25.0391 29.6226 24.5303 29.8333 23.9999 29.8333C23.4695 29.8333 22.9608 29.6226 22.5857 29.2475C22.2106 28.8725 21.9999 28.3638 21.9999 27.8333C21.9999 27.3029 22.2106 26.7942 22.5857 26.4191C22.9608 26.044 23.4695 25.8333 23.9999 25.8333ZM4.66659 3.16667C6.96792 3.16667 8.69725 4.87733 8.85992 7.16667H27.0692C27.4599 7.16661 27.8458 7.25238 28.1996 7.41792C28.5535 7.58346 28.8666 7.82472 29.117 8.12464C29.3673 8.42456 29.5486 8.77581 29.6482 9.15356C29.7478 9.53131 29.7632 9.92632 29.6932 10.3107L27.5106 22.3107C27.3988 22.9251 27.0749 23.4808 26.5954 23.8809C26.1158 24.281 25.5111 24.5001 24.8866 24.5H9.90792C9.23344 24.5 8.58401 24.2444 8.09043 23.7848C7.59686 23.3251 7.29581 22.6954 7.24792 22.0227L6.18125 7.072C6.11992 6.24667 5.41859 5.83333 4.66659 5.83333C4.31296 5.83333 3.97382 5.69286 3.72378 5.44281C3.47373 5.19276 3.33325 4.85362 3.33325 4.5C3.33325 4.14638 3.47373 3.80724 3.72378 3.55719C3.97382 3.30714 4.31296 3.16667 4.66659 3.16667Z" fill="#CDA6FF"/>
</svg>
